<svg width="50" height="50" viewBox="0 0 50 50" fill="none" xmlns="http://www.w3.org/2000/svg">
<circle cx="25" cy="25" r="23.5" stroke="#939393" stroke-width="3"/>
<path fill-rule="evenodd" clip-rule="evenodd" d="M23.0425 12.2719C23.1644 10.5188 24.8275 9.16313 26.62 9.60938L27.1094 9.73313C27.9775 9.95063 28.7481 10.5881 29.0069 11.5425C29.4194 13.0725 30.0063 16.2506 29.1231 19.9988C29.3992 19.9606 29.6762 19.9287 29.9538 19.9031C31.2906 19.7813 33.0831 19.7681 34.6712 20.2969C35.6425 20.6213 36.535 21.5738 36.9212 22.6838C37.2662 23.6813 37.2212 24.8625 36.4825 25.9331C36.5912 26.1563 36.6756 26.3869 36.7413 26.6137C36.8856 27.12 36.9531 27.6769 36.9531 28.2187C36.9531 28.7606 36.8856 29.3175 36.7413 29.8238C36.6681 30.0769 36.5725 30.3356 36.4412 30.5813C36.7581 31.3069 36.6419 32.1169 36.4356 32.7338C36.2245 33.3429 35.9154 33.9135 35.5206 34.4231C35.6219 34.7081 35.6631 35.0081 35.6631 35.295C35.6631 35.8669 35.4963 36.4669 35.1887 37.005C34.5625 38.1037 33.3194 39 31.5625 39V37.125C32.6181 37.125 33.2519 36.615 33.5613 36.075C33.7018 35.8385 33.7799 35.57 33.7881 35.295C33.7881 35.07 33.7225 34.9856 33.7131 34.9763L33.0494 34.3125L33.7113 33.6487C34.09 33.2719 34.4744 32.6906 34.6581 32.1412C34.8531 31.5563 34.7388 31.3144 34.6488 31.2263L33.9869 30.5625L34.6488 29.8987C34.7294 29.82 34.8456 29.6363 34.9375 29.3081C35.0275 28.995 35.0781 28.6144 35.0781 28.2187C35.0781 27.8231 35.0275 27.4425 34.9375 27.1294C34.8438 26.8031 34.7294 26.6175 34.6488 26.5388L33.9869 25.875L34.6488 25.2112C35.3106 24.5512 35.3481 23.8744 35.1494 23.2988C34.9206 22.6425 34.4069 22.1869 34.0788 22.0763C32.8544 21.6694 31.3656 21.6563 30.1225 21.7688C29.4328 21.833 28.7477 21.9401 28.0712 22.0894L28.045 22.095L28.0394 22.0969C27.8765 22.1373 27.7058 22.1333 27.545 22.0853C27.3842 22.0372 27.2392 21.9469 27.1253 21.8238C27.0113 21.7006 26.9325 21.5491 26.897 21.3851C26.8616 21.221 26.8708 21.0505 26.9237 20.8913C27.8673 18.0256 27.9617 14.9481 27.1956 12.03C27.1394 11.8219 26.9556 11.6269 26.6556 11.5519L26.1644 11.43C25.5906 11.2856 24.9606 11.7225 24.9137 12.4013C24.7731 14.43 24.4656 16.4325 24.01 17.745C23.6838 18.6863 22.8794 20.1225 21.6888 21.4519C20.4944 22.7869 18.8406 24.0956 16.7875 24.6544C16.0487 24.8569 15.625 25.3969 15.625 25.8731V33.3769C15.625 33.8644 16.0375 34.3425 16.6619 34.4081C19.0862 34.665 20.2919 35.4019 21.3325 36.0356L21.4075 36.0825C21.9138 36.39 22.3356 36.6375 22.8625 36.8194C23.3819 36.9975 24.0437 37.125 25 37.125H31.5625V39H25C23.8656 39 22.9937 38.8481 22.2513 38.5912C21.6128 38.3581 21.0027 38.0537 20.4325 37.6838L20.3425 37.6275C19.3975 37.0519 18.4694 36.4856 16.465 36.2737C15.0287 36.12 13.75 34.9612 13.75 33.375V25.875C13.75 24.2812 15.0344 23.19 16.2944 22.8469C17.8863 22.4119 19.2456 21.3713 20.2919 20.2031C21.3419 19.0275 22.0056 17.8031 22.24 17.13C22.6131 16.0519 22.9075 14.2444 23.0425 12.2738V12.2719Z" fill="white"/>
</svg>
