<svg width="50" height="50" viewBox="0 0 50 50" fill="none" xmlns="http://www.w3.org/2000/svg">
<circle cx="25" cy="25" r="23.5" stroke="#939393" stroke-width="3"/>
<g clip-path="url(#clip0)">
<path fill-rule="evenodd" clip-rule="evenodd" d="M22.0425 37.2512C22.1644 39.0062 23.8275 40.3619 25.62 39.9137L26.1094 39.7919C26.5583 39.687 26.971 39.4639 27.3047 39.1458C27.6383 38.8276 27.8808 38.426 28.0069 37.9825C28.4194 36.4525 29.0063 33.2725 28.1231 29.5262C28.3781 29.5637 28.6575 29.5956 28.9538 29.6219C30.2906 29.7437 32.0831 29.755 33.6712 29.2262C34.6425 28.9019 35.535 27.9513 35.9212 26.8412C36.1146 26.3039 36.1757 25.7279 36.0993 25.162C36.023 24.5961 35.8114 24.0568 35.4825 23.59C35.5912 23.3687 35.6756 23.1362 35.7413 22.9112C35.8856 22.405 35.9531 21.8462 35.9531 21.3044C35.9531 20.7644 35.8856 20.2075 35.7413 19.6994C35.6677 19.4378 35.5671 19.1846 35.4412 18.9437C35.7581 18.2181 35.6419 17.4062 35.4356 16.7894C35.2243 16.1809 34.9153 15.6109 34.5206 15.1019C34.6219 14.815 34.6631 14.515 34.6631 14.23C34.6551 13.6286 34.4917 13.0396 34.1887 12.52C33.5625 11.4194 32.3194 10.525 30.5625 10.525V12.4C31.6181 12.4 32.2519 12.91 32.5613 13.45C32.7225 13.7312 32.7881 14.0125 32.7881 14.23C32.7881 14.455 32.7225 14.5394 32.7131 14.5487L32.0494 15.2106L32.7113 15.8744C33.09 16.2531 33.4744 16.8344 33.6581 17.3837C33.8531 17.9687 33.7388 18.2087 33.6488 18.2987L32.9869 18.9606L33.6488 19.6244C33.7294 19.705 33.8456 19.8887 33.9375 20.215C34.0275 20.5281 34.0781 20.9087 34.0781 21.3044C34.0781 21.7019 34.0275 22.0825 33.9375 22.3956C33.8438 22.7219 33.7294 22.9056 33.6488 22.9862L32.9869 23.6481L33.6488 24.3119C34.3106 24.9719 34.3481 25.6506 34.1494 26.2262C33.9206 26.8825 33.4069 27.3381 33.0788 27.4469C31.8544 27.8556 30.3656 27.8669 29.1225 27.7544C28.4328 27.6908 27.7477 27.5843 27.0712 27.4356L27.045 27.4281H27.0375C26.8746 27.3877 26.7039 27.3917 26.5431 27.4397C26.3823 27.4878 26.2374 27.5781 26.1234 27.7012C26.0094 27.8244 25.9306 27.9759 25.8951 28.1399C25.8597 28.304 25.8689 28.4745 25.9219 28.6337C26.8651 31.4988 26.9595 34.5756 26.1938 37.4931C26.1375 37.7031 25.9537 37.8962 25.6537 37.9712L25.1625 38.095C24.5887 38.2375 23.9587 37.8025 23.9119 37.1219C23.7712 35.095 23.4638 33.0906 23.0081 31.7781C22.6819 30.8369 21.8775 29.4025 20.6869 28.0712C19.4944 26.7362 17.8406 25.4312 15.7875 24.8687C15.0487 24.6681 14.625 24.1262 14.625 23.65V16.1481C14.625 15.6606 15.0375 15.1825 15.6619 15.1169C18.0862 14.8581 19.2919 14.1231 20.3325 13.4875L20.4075 13.4425C20.9138 13.1331 21.3356 12.8875 21.8625 12.7056C22.3819 12.5256 23.0437 12.4 24 12.4H30.5625V10.525H24C22.8656 10.525 21.9937 10.675 21.2513 10.9319C20.6127 11.1657 20.0026 11.4707 19.4325 11.8412L19.3425 11.8956C18.3975 12.4731 17.4694 13.0394 15.465 13.2512C14.0287 13.4031 12.75 14.5637 12.75 16.1481V23.6481C12.75 25.2437 14.0344 26.335 15.2944 26.6781C16.8863 27.1131 18.2456 28.1537 19.2919 29.3219C20.3419 30.4956 21.0056 31.7219 21.24 32.3931C21.6131 33.4712 21.9075 35.2806 22.0425 37.2512Z" fill="white"/>
</g>
<defs>
<clipPath id="clip0">
<rect width="30" height="30" fill="white" transform="translate(9 10)"/>
</clipPath>
</defs>
</svg>
