<svg xmlns="http://www.w3.org/2000/svg" width="47" height="50" fill="none" viewBox="0 0 47 50"><path fill="#fff" d="M0 0H47V50H0V0ZM3.35714 3.33333V46.6667H43.6429V3.33333H3.35714Z"/><path fill="#fff" d="M28.2357 36.9484C29.2296 36.9484 30.0093 36.4762 30.5746 35.5329C31.1398 34.5885 31.423 33.262 31.423 31.5515C31.423 29.8409 31.1398 28.5135 30.5746 27.5691C30.0093 26.6258 29.2296 26.1536 28.2357 26.1536C27.2417 26.1536 26.4621 26.6258 25.8958 27.5691C25.3305 28.5135 25.0484 29.8409 25.0484 31.5515C25.0484 33.262 25.3305 34.5885 25.8958 35.5329C26.4621 36.4762 27.2417 36.9484 28.2357 36.9484ZM28.2357 40.1181C26.8359 40.1181 25.6116 39.7676 24.5618 39.0678C23.513 38.3679 22.7025 37.377 22.1332 36.0941C21.5639 34.8112 21.2788 33.2977 21.2788 31.5515C21.2788 29.8202 21.5639 28.3096 22.1332 27.0197C22.7025 25.7299 23.513 24.735 24.5618 24.0342C25.6116 23.3343 26.8359 22.9839 28.2357 22.9839C29.6344 22.9839 30.8597 23.3343 31.9095 24.0342C32.9593 24.735 33.7678 25.7299 34.3381 27.0197C34.9064 28.3096 35.1925 29.8202 35.1925 31.5515C35.1925 33.2977 34.9064 34.8112 34.3381 36.0941C33.7678 37.377 32.9593 38.3679 31.9095 39.0678C30.8597 39.7676 29.6344 40.1181 28.2357 40.1181Z"/><path fill="#fff" d="M14.8833 39.849V27.7752L11.5504 28.6305V24.8778L18.59 23.093V39.849H14.8833Z"/><path fill="#fff" d="M33.6365 15.7043H34.9286C35.5666 15.7043 36.0292 15.5806 36.3164 15.3321C36.6035 15.0846 36.747 14.7332 36.747 14.2789C36.747 13.8354 36.6035 13.4929 36.3164 13.2494C36.0292 13.0068 35.5666 12.8851 34.9286 12.8851H33.6365V15.7043ZM30.6057 21.3903V10.3668H35.4071C36.3114 10.3668 37.092 10.5301 37.752 10.8578C38.411 11.1854 38.9214 11.6447 39.2833 12.2357C39.6442 12.8277 39.8257 13.5087 39.8257 14.2789C39.8257 15.0708 39.6442 15.7627 39.2833 16.3537C38.9214 16.9447 38.411 17.405 37.752 17.7316C37.092 18.0593 36.3114 18.2226 35.4071 18.2226H33.6365V21.3903H30.6057Z"/><path fill="#fff" d="M23.6186 18.9988C24.161 18.9988 24.6365 18.8701 25.0463 18.6107C25.456 18.3524 25.7751 17.9881 26.0034 17.5179C26.2327 17.0477 26.3463 16.5023 26.3463 15.8786C26.3463 15.256 26.2327 14.7095 26.0034 14.2393C25.7751 13.7691 25.456 13.4059 25.0463 13.1465C24.6365 12.8881 24.161 12.7585 23.6186 12.7585C23.0763 12.7585 22.6007 12.8881 22.1909 13.1465C21.7812 13.4059 21.4622 13.7691 21.2339 14.2393C21.0055 14.7095 20.8909 15.256 20.8909 15.8786C20.8909 16.5023 21.0055 17.0477 21.2339 17.5179C21.4622 17.9881 21.7812 18.3524 22.1909 18.6107C22.6007 18.8701 23.0763 18.9988 23.6186 18.9988ZM23.6186 21.6596C22.7672 21.6596 21.9886 21.5151 21.2817 21.2241C20.5749 20.934 19.9607 20.5272 19.4393 20.0045C18.9189 19.4819 18.5171 18.8701 18.235 18.1673C17.9528 17.4654 17.8123 16.7022 17.8123 15.8786C17.8123 15.055 17.9528 14.2928 18.235 13.59C18.5171 12.8881 18.9189 12.2754 19.4393 11.7527C19.9607 11.2301 20.5749 10.8242 21.2817 10.5332C21.9886 10.2431 22.7672 10.0976 23.6186 10.0976C24.47 10.0976 25.2487 10.2431 25.9555 10.5332C26.6624 10.8242 27.2765 11.2301 27.7979 11.7527C28.3193 12.2754 28.7201 12.8881 29.0022 13.59C29.2844 14.2928 29.425 15.055 29.425 15.8786C29.425 16.7022 29.2844 17.4654 29.0022 18.1673C28.7201 18.8701 28.3193 19.4819 27.7979 20.0045C27.2765 20.5272 26.6624 20.934 25.9555 21.2241C25.2487 21.5151 24.47 21.6596 23.6186 21.6596Z"/><path fill="#fff" d="M14.2075 21.3904L11.1767 22.111V12.9644H7.81091V10.3669H17.5732V12.9644H14.2075V21.3904Z"/></svg>